<?xml version="1.0" encoding="utf-8"?>
<!-- Generator: Adobe Illustrator 17.0.0, SVG Export Plug-In . SVG Version: 6.00 Build 0)  -->
<!DOCTYPE svg PUBLIC "-//W3C//DTD SVG 1.1//EN" "http://www.w3.org/Graphics/SVG/1.1/DTD/svg11.dtd">
<svg version="1.1" id="Layer_1" xmlns="http://www.w3.org/2000/svg" xmlns:xlink="http://www.w3.org/1999/xlink" x="0px" y="0px"
	 width="356px" height="99px" viewBox="0 0 356 99" enable-background="new 0 0 356 99" xml:space="preserve">
<g>
	<path fill="#DB3654" d="M29.413,77.943c-4.65,0-8.798-1.109-12.332-3.297l-0.189-0.117l0.058-0.216
		c1.082-4.073,2.514-8.96,4.255-14.52l0.069-0.213h1.198l-0.014,0.313c-0.209,4.726,0.913,8.513,3.249,10.955
		c1.824,1.903,4.317,2.909,7.212,2.909c5.577,0,9.622-3.939,9.622-9.372c0-1.738-0.426-3.355-1.298-4.945
		c-0.845-1.686-1.569-2.799-2.284-3.517c-0.409-0.46-1.58-1.744-3.836-4.004c-1.538-1.46-2.679-2.668-3.678-3.76
		c-1.871-2.339-3.746-6.315-3.746-9.959c0-4.554,2.112-8.585,6.278-11.988c4.09-3.42,8.922-5.154,14.368-5.154
		c3.424,0,7.418,0.961,11.875,2.86l0.258,0.11l-0.093,0.264c-1.738,4.88-3.084,9.66-3.994,14.217l-0.048,0.241h-1.209v-0.299
		c0-2.143-0.261-3.994-0.824-5.834c-1.017-3.678-4.286-7.377-9.303-7.377c-5.158,0-8.623,3.163-8.623,7.871
		c0,1.404,0.336,2.857,0.972,4.214c1.284,2.644,2.469,4.025,5.285,7.009c1.968,2.054,3.351,3.523,4.179,4.516
		c1.7,1.944,4.41,6.642,4.41,10.948c0,5.045-2.342,9.389-6.958,12.916C39.547,76.233,34.687,77.943,29.413,77.943"/>
	<path fill="#DB3654" d="M64.16,77.942c-6.137,0-9.801-3.946-9.801-10.557c0-6.099,2.435-11.975,7.243-17.459
		c4.9-5.491,10.22-8.273,15.817-8.273c4.537,0,7.136,2.205,7.136,6.054c0,6.494-6.896,12.456-20.505,17.713
		c0.124,3.983,1.58,5.917,4.447,5.917c2.833,0,5.92-2.229,9.186-6.631l0.186-0.251l0.903,0.749L78.7,65.404
		C75.88,73.138,70.307,77.942,64.16,77.942 M74.751,44.501c-2.15,0-4.389,2.136-6.656,6.35c-2.205,4.011-3.523,8.029-3.922,11.954
		c2.874-1.411,5.68-3.637,8.355-6.624c2.768-3.098,4.176-6.202,4.176-9.224C76.704,45.734,76.035,44.501,74.751,44.501"/>
	<path fill="#DB3654" d="M92.843,77.524c-1.865,0-3.434-0.309-4.794-0.944l-0.233-0.106l0.072-0.247l7.253-25.598
		c0.319-1.051,0.347-1.762,0.082-2.116c-0.168-0.23-0.484-0.34-0.965-0.34c-1.882,0-4.416,1.624-7.538,4.828L86.524,53.2l-0.9-0.752
		l0.117-0.21c1.425-2.682,3.668-5.127,6.676-7.277c2.953-2.194,5.907-3.307,8.764-3.307c1.758,0,3.087,0.549,3.846,1.593
		c0.903,1.25,0.968,3.166,0.189,5.553l-4.052,11.762l1.913-4.059l2.091-4.179c0.972-1.944,1.803-3.328,2.534-4.221
		c3.541-4.681,6.635-6.789,9.44-6.446h0.007c1.47,0,3.259,0.735,3.259,4.214c0,3.125-1.109,5.508-3.293,7.081l-0.076,0.055
		l-0.858-0.017l-2.953-0.985c-2.115,0.021-4.21,1.219-6.233,3.568c-3.784,4.378-6.535,10.178-9.196,19.403
		C97.352,76.665,95.683,77.524,92.843,77.524"/>
	<path fill="#170C84" d="M185.625,76.36h10.505V53.938c0-8.393-3.836-12.644-11.394-12.644c-3.891,0-7.764,1.463-11.508,4.351
		l-0.34,0.261l-1.167-3.729h-8.967V76.36h10.505V52.98l0.117-0.086c2.071-1.631,4.846-2.641,7.243-2.641
		c4.399,0,5.007,3.362,5.007,6.992V76.36z"/>
	<path fill="#170C84" d="M214.824,48.929c5.292,0,6.401,2.644,6.401,4.859v0.656l-5.803,0.23c-3.671,0.155-6.721,0.862-9.063,2.102
		c-3.856,2.043-5.649,4.976-5.649,9.221c0,6.432,4.852,11.099,11.539,11.099c3.681,0,6.703-1.143,9.512-3.602l0.285-0.251
		l1.635,3.118h8.548c-0.494-1.933-0.494-4.574-0.494-6.542V54.232c0-8.706-4.859-12.936-14.849-12.936
		c-4.952,0-9.516,1.051-13.943,3.218l3.19,6.446C208.628,49.705,211.925,48.929,214.824,48.929 M215.85,69.163
		c-2.943,0-4.636-1.422-4.636-3.901c0-1.511,0.522-2.517,1.683-3.266c0.968-0.598,2.362-0.92,4.269-1.003l4.059-0.161v6.947
		l-0.137,0.086C220.146,68.466,218.21,69.163,215.85,69.163"/>
	<path fill="#170C84" d="M261.121,76.36h10.508V53.938c0-8.393-3.836-12.644-11.395-12.644c-3.894,0-7.768,1.463-11.507,4.351
		l-0.344,0.261l-1.164-3.729h-8.967V76.36h10.505V52.98l0.117-0.086c2.067-1.631,4.845-2.641,7.243-2.641
		c4.396,0,5.004,3.362,5.004,6.992V76.36z"/>
	<polygon fill="#170C84" points="275.24,76.36 305.165,76.36 305.165,68.427 290.319,68.427 305.244,42.177 276.068,42.177 
		278.121,50.106 290.319,50.106 	"/>
	<path fill="#170C84" d="M321.704,48.929c5.288,0,6.401,2.644,6.401,4.859v0.656l-5.803,0.23c-3.671,0.155-6.721,0.862-9.063,2.102
		c-3.857,2.043-5.649,4.976-5.649,9.221c0,6.432,4.852,11.099,11.539,11.099c3.681,0,6.703-1.143,9.512-3.602l0.285-0.251
		l1.635,3.118h8.548c-0.498-1.933-0.498-4.574-0.498-6.542V54.232c0-8.706-4.856-12.936-14.849-12.936
		c-4.949,0-9.513,1.051-13.939,3.218l3.19,6.446C315.509,49.705,318.806,48.929,321.704,48.929 M322.731,69.163
		c-2.943,0-4.636-1.422-4.636-3.901c0-1.511,0.522-2.517,1.683-3.266c0.969-0.598,2.363-0.924,4.269-1.003l4.059-0.161v6.947
		l-0.141,0.086C327.027,68.466,325.09,69.163,322.731,69.163"/>
	<rect x="145.83" y="42.176" fill="#170C84" width="10.505" height="34.183"/>
	<path fill="#170C84" d="M150.911,25.335c-2.871,0-5.12,2.146-5.12,4.883c0,2.816,2.198,4.938,5.12,4.938
		c2.823,0,5.12-2.215,5.12-4.938C156.031,27.433,153.833,25.335,150.911,25.335"/>
	<path fill="#170C84" d="M134.713,36.516c1.7-1.408,4.142-1.442,5.23-1.37v-9.863c-2.713-0.082-7.607,0.319-11.707,3.633
		c-4.093,3.311-6.168,8.41-6.168,15.162v32.202h10.175V50.774h7.699v-8.599h-7.607C132.539,40.06,133.158,37.807,134.713,36.516"/>
	<path fill="#170C84" d="M162.751,23.403h2.96c2.493,0,3.616,1.387,3.616,2.974c0,1.14-0.57,2.084-1.515,2.514v0.034
		c1.339,0.302,2.263,1.408,2.263,2.85c0,1.927-1.388,3.369-4.028,3.369h-3.297V23.403z M165.533,28.496
		c1.446,0,2.211-0.728,2.211-1.902c0-1.089-0.642-1.872-2.174-1.872h-1.233v3.774H165.533z M165.962,33.826
		c1.532,0,2.493-0.587,2.493-2.033c0-1.209-0.906-1.975-2.315-1.975h-1.803v4.008H165.962z"/>
	<path fill="#170C84" d="M176.983,34.235c-0.642,0.608-1.463,1.085-2.514,1.085c-1.549,0-2.709-1.013-2.709-2.634
		c0-1.123,0.57-1.872,1.425-2.28c0.591-0.285,1.264-0.392,2.119-0.429l1.57-0.055v-0.443c0-1.192-0.728-1.71-1.745-1.71
		c-0.965,0-1.693,0.302-2.297,0.659l-0.553-1.089c0.978-0.587,2.047-0.838,3.046-0.838c1.906,0,3.118,0.91,3.118,2.943v3.063
		c0,1.442,0.051,2.208,0.158,2.637h-1.353L176.983,34.235z M175.503,31.099c-0.677,0.017-1.123,0.124-1.48,0.302
		c-0.446,0.251-0.659,0.677-0.659,1.195c0,0.872,0.57,1.442,1.463,1.442c0.979,0,1.672-0.587,2.047-0.961v-2.033L175.503,31.099z"/>
	<path fill="#170C84" d="M180.742,26.716h1.319l0.196,1.034c0.906-0.749,1.851-1.247,2.922-1.247c1.336,0,2.565,0.783,2.565,2.995
		v5.646h-1.569v-5.13c0-1.195-0.285-2.119-1.442-2.119c-0.855,0-1.672,0.498-2.424,1.14v6.109h-1.566V26.716z"/>
	<path fill="#170C84" d="M189.595,31.009c0-2.51,1.71-4.505,4.275-4.505c0.91,0,1.659,0.251,2.157,0.536v1.37
		c-0.57-0.374-1.209-0.608-2.033-0.608c-1.727,0-2.778,1.339-2.778,3.122c0,1.978,1.051,3.098,2.672,3.098
		c0.855,0,1.463-0.285,2.016-0.587l0.463,1.102c-0.625,0.429-1.624,0.786-2.696,0.786C191.037,35.322,189.595,33.396,189.595,31.009
		"/>
	<path fill="#170C84" d="M197.176,30.922c0-2.497,1.586-4.42,4.011-4.42c2.386,0,3.99,1.923,3.99,4.42
		c0,2.476-1.587,4.399-4.008,4.399C198.762,35.321,197.176,33.398,197.176,30.922 M203.557,30.922c0-1.817-0.893-3.118-2.369-3.118
		c-1.498,0-2.39,1.302-2.39,3.118c0,1.796,0.893,3.098,2.373,3.098C202.664,34.019,203.557,32.718,203.557,30.922"/>
	<path fill="#DB3654" d="M29.413,77.943c-4.65,0-8.798-1.109-12.332-3.297l-0.189-0.117l0.058-0.216
		c1.082-4.073,2.514-8.96,4.255-14.52l0.069-0.213h1.198l-0.014,0.313c-0.209,4.726,0.913,8.513,3.249,10.955
		c1.824,1.903,4.317,2.909,7.212,2.909c5.577,0,9.622-3.939,9.622-9.372c0-1.738-0.426-3.355-1.298-4.945
		c-0.845-1.686-1.569-2.799-2.284-3.517c-0.409-0.46-1.58-1.744-3.836-4.004c-1.538-1.46-2.679-2.668-3.678-3.76
		c-1.871-2.339-3.746-6.315-3.746-9.959c0-4.554,2.112-8.585,6.278-11.988c4.09-3.42,8.922-5.154,14.368-5.154
		c3.424,0,7.418,0.961,11.875,2.86l0.258,0.11l-0.093,0.264c-1.738,4.88-3.084,9.66-3.994,14.217l-0.048,0.241h-1.209v-0.299
		c0-2.143-0.261-3.994-0.824-5.834c-1.017-3.678-4.286-7.377-9.303-7.377c-5.158,0-8.623,3.163-8.623,7.871
		c0,1.404,0.336,2.857,0.972,4.214c1.284,2.644,2.469,4.025,5.285,7.009c1.968,2.054,3.351,3.523,4.179,4.516
		c1.7,1.944,4.41,6.642,4.41,10.948c0,5.045-2.342,9.389-6.958,12.916C39.547,76.233,34.687,77.943,29.413,77.943"/>
	<path fill="#DB3654" d="M64.16,77.942c-6.137,0-9.801-3.946-9.801-10.557c0-6.099,2.435-11.975,7.243-17.459
		c4.9-5.491,10.22-8.273,15.817-8.273c4.537,0,7.136,2.205,7.136,6.054c0,6.494-6.896,12.456-20.505,17.713
		c0.124,3.983,1.58,5.917,4.447,5.917c2.833,0,5.92-2.229,9.186-6.631l0.186-0.251l0.903,0.749L78.7,65.404
		C75.88,73.138,70.307,77.942,64.16,77.942 M74.751,44.501c-2.15,0-4.389,2.136-6.656,6.35c-2.205,4.011-3.523,8.029-3.922,11.954
		c2.874-1.411,5.68-3.637,8.355-6.624c2.768-3.098,4.176-6.202,4.176-9.224C76.704,45.734,76.035,44.501,74.751,44.501"/>
	<path fill="#DB3654" d="M92.843,77.524c-1.865,0-3.434-0.309-4.794-0.944l-0.233-0.106l0.072-0.247l7.253-25.598
		c0.319-1.051,0.347-1.762,0.082-2.116c-0.168-0.23-0.484-0.34-0.965-0.34c-1.882,0-4.416,1.624-7.538,4.828L86.524,53.2l-0.9-0.752
		l0.117-0.21c1.425-2.682,3.668-5.127,6.676-7.277c2.953-2.194,5.907-3.307,8.764-3.307c1.758,0,3.087,0.549,3.846,1.593
		c0.903,1.25,0.968,3.166,0.189,5.553l-4.052,11.762l1.913-4.059l2.091-4.179c0.972-1.944,1.803-3.328,2.534-4.221
		c3.541-4.681,6.635-6.789,9.44-6.446h0.007c1.47,0,3.259,0.735,3.259,4.214c0,3.125-1.109,5.508-3.293,7.081l-0.076,0.055
		l-0.858-0.017l-2.953-0.985c-2.115,0.021-4.21,1.219-6.233,3.568c-3.784,4.378-6.535,10.178-9.196,19.403
		C97.352,76.665,95.683,77.524,92.843,77.524"/>
	<path fill="#170C84" d="M185.625,76.36h10.505V53.938c0-8.393-3.836-12.644-11.394-12.644c-3.891,0-7.764,1.463-11.508,4.351
		l-0.34,0.261l-1.167-3.729h-8.967V76.36h10.505V52.98l0.117-0.086c2.071-1.631,4.846-2.641,7.243-2.641
		c4.399,0,5.007,3.362,5.007,6.992V76.36z"/>
	<path fill="#170C84" d="M214.824,48.929c5.292,0,6.401,2.644,6.401,4.859v0.656l-5.803,0.23c-3.671,0.155-6.721,0.862-9.063,2.102
		c-3.856,2.043-5.649,4.976-5.649,9.221c0,6.432,4.852,11.099,11.539,11.099c3.681,0,6.703-1.143,9.512-3.602l0.285-0.251
		l1.635,3.118h8.548c-0.494-1.933-0.494-4.574-0.494-6.542V54.232c0-8.706-4.859-12.936-14.849-12.936
		c-4.952,0-9.516,1.051-13.943,3.218l3.19,6.446C208.628,49.705,211.925,48.929,214.824,48.929 M215.85,69.163
		c-2.943,0-4.636-1.422-4.636-3.901c0-1.511,0.522-2.517,1.683-3.266c0.968-0.598,2.362-0.92,4.269-1.003l4.059-0.161v6.947
		l-0.137,0.086C220.146,68.466,218.21,69.163,215.85,69.163"/>
	<path fill="#170C84" d="M261.121,76.36h10.508V53.938c0-8.393-3.836-12.644-11.395-12.644c-3.894,0-7.768,1.463-11.507,4.351
		l-0.344,0.261l-1.164-3.729h-8.967V76.36h10.505V52.98l0.117-0.086c2.067-1.631,4.845-2.641,7.243-2.641
		c4.396,0,5.004,3.362,5.004,6.992V76.36z"/>
	<polygon fill="#170C84" points="275.24,76.36 305.165,76.36 305.165,68.427 290.319,68.427 305.244,42.177 276.068,42.177 
		278.121,50.106 290.319,50.106 	"/>
	<path fill="#170C84" d="M321.704,48.929c5.288,0,6.401,2.644,6.401,4.859v0.656l-5.803,0.23c-3.671,0.155-6.721,0.862-9.063,2.102
		c-3.857,2.043-5.649,4.976-5.649,9.221c0,6.432,4.852,11.099,11.539,11.099c3.681,0,6.703-1.143,9.512-3.602l0.285-0.251
		l1.635,3.118h8.548c-0.498-1.933-0.498-4.574-0.498-6.542V54.232c0-8.706-4.856-12.936-14.849-12.936
		c-4.949,0-9.513,1.051-13.939,3.218l3.19,6.446C315.509,49.705,318.806,48.929,321.704,48.929 M322.731,69.163
		c-2.943,0-4.636-1.422-4.636-3.901c0-1.511,0.522-2.517,1.683-3.266c0.969-0.598,2.363-0.924,4.269-1.003l4.059-0.161v6.947
		l-0.141,0.086C327.027,68.466,325.09,69.163,322.731,69.163"/>
	<rect x="145.83" y="42.176" fill="#170C84" width="10.505" height="34.183"/>
	<path fill="#170C84" d="M150.911,25.335c-2.871,0-5.12,2.146-5.12,4.883c0,2.816,2.198,4.938,5.12,4.938
		c2.823,0,5.12-2.215,5.12-4.938C156.031,27.433,153.833,25.335,150.911,25.335"/>
	<path fill="#170C84" d="M134.713,36.516c1.7-1.408,4.142-1.442,5.23-1.37v-9.863c-2.713-0.082-7.607,0.319-11.707,3.633
		c-4.093,3.311-6.168,8.41-6.168,15.162v32.202h10.175V50.774h7.699v-8.599h-7.607C132.539,40.06,133.158,37.807,134.713,36.516"/>
	<path fill="#170C84" d="M162.751,23.403h2.96c2.493,0,3.616,1.387,3.616,2.974c0,1.14-0.57,2.084-1.515,2.514v0.034
		c1.339,0.302,2.263,1.408,2.263,2.85c0,1.927-1.388,3.369-4.028,3.369h-3.297V23.403z M165.533,28.496
		c1.446,0,2.211-0.728,2.211-1.902c0-1.089-0.642-1.872-2.174-1.872h-1.233v3.774H165.533z M165.962,33.826
		c1.532,0,2.493-0.587,2.493-2.033c0-1.209-0.906-1.975-2.315-1.975h-1.803v4.008H165.962z"/>
	<path fill="#170C84" d="M176.983,34.235c-0.642,0.608-1.463,1.085-2.514,1.085c-1.549,0-2.709-1.013-2.709-2.634
		c0-1.123,0.57-1.872,1.425-2.28c0.591-0.285,1.264-0.392,2.119-0.429l1.57-0.055v-0.443c0-1.192-0.728-1.71-1.745-1.71
		c-0.965,0-1.693,0.302-2.297,0.659l-0.553-1.089c0.978-0.587,2.047-0.838,3.046-0.838c1.906,0,3.118,0.91,3.118,2.943v3.063
		c0,1.442,0.051,2.208,0.158,2.637h-1.353L176.983,34.235z M175.503,31.099c-0.677,0.017-1.123,0.124-1.48,0.302
		c-0.446,0.251-0.659,0.677-0.659,1.195c0,0.872,0.57,1.442,1.463,1.442c0.979,0,1.672-0.587,2.047-0.961v-2.033L175.503,31.099z"/>
	<path fill="#170C84" d="M180.742,26.716h1.319l0.196,1.034c0.906-0.749,1.851-1.247,2.922-1.247c1.336,0,2.565,0.783,2.565,2.995
		v5.646h-1.569v-5.13c0-1.195-0.285-2.119-1.442-2.119c-0.855,0-1.672,0.498-2.424,1.14v6.109h-1.566V26.716z"/>
	<path fill="#170C84" d="M189.595,31.009c0-2.51,1.71-4.505,4.275-4.505c0.91,0,1.659,0.251,2.157,0.536v1.37
		c-0.57-0.374-1.209-0.608-2.033-0.608c-1.727,0-2.778,1.339-2.778,3.122c0,1.978,1.051,3.098,2.672,3.098
		c0.855,0,1.463-0.285,2.016-0.587l0.463,1.102c-0.625,0.429-1.624,0.786-2.696,0.786C191.037,35.322,189.595,33.396,189.595,31.009
		"/>
	<path fill="#170C84" d="M197.176,30.922c0-2.497,1.586-4.42,4.011-4.42c2.386,0,3.99,1.923,3.99,4.42
		c0,2.476-1.587,4.399-4.008,4.399C198.762,35.321,197.176,33.398,197.176,30.922 M203.557,30.922c0-1.817-0.893-3.118-2.369-3.118
		c-1.498,0-2.39,1.302-2.39,3.118c0,1.796,0.893,3.098,2.373,3.098C202.664,34.019,203.557,32.718,203.557,30.922"/>
</g>
</svg>
